<svg width="18" height="18" viewBox="0 0 18 18" fill="none" xmlns="http://www.w3.org/2000/svg">
<g clip-path="url(#clip0_1_207)">
<path fill-rule="evenodd" clip-rule="evenodd" d="M7.36175 1.85299C6.98432 2.17813 6.79475 2.68961 6.43538 4.35334C6.18687 5.50369 5.78053 6.95827 5.53221 7.58573L5.0812 8.72658L3.6656 8.82165L2.25 8.91672V11.6738V14.4308L3.25033 14.4884C4.01641 14.5323 4.27728 14.4768 4.36399 14.2507C4.45278 14.0195 4.79275 13.9553 5.93056 13.9547C7.07501 13.9541 7.52527 13.8684 8.0493 13.5505C8.41532 13.3286 8.77887 13.0508 8.85739 12.9333C8.96292 12.7751 9.03708 12.7751 9.14261 12.9333C9.22113 13.0508 9.58468 13.3286 9.9507 13.5505C10.4747 13.8684 10.925 13.9541 12.0694 13.9547C13.2072 13.9553 13.5472 14.0195 13.636 14.2507C13.7227 14.4768 13.9836 14.5323 14.7497 14.4884L15.75 14.4308V11.6738V8.91672L14.3344 8.82165L12.9188 8.72658L12.4678 7.58573C12.2195 6.95827 11.8131 5.50369 11.5646 4.35334C11.002 1.74898 10.7331 1.44418 9 1.44418C8.08295 1.44418 7.73556 1.53089 7.36175 1.85299ZM8.42958 7.12502V11.703L7.8738 12.2588C7.35737 12.7752 7.2161 12.8146 5.87732 12.8146H4.43662V11.3885C4.43662 10.0117 4.4524 9.96249 4.89087 9.96249C5.14071 9.96249 5.52232 9.81285 5.73889 9.62975C6.23402 9.21144 7.1697 6.63826 7.57299 4.58626C7.95099 2.66375 7.98864 2.547 8.23354 2.547C8.36284 2.547 8.42958 4.10692 8.42958 7.12502ZM10.3747 4.36722C10.8297 6.63465 11.812 9.34244 12.3043 9.68717C12.5205 9.83871 12.8922 9.96249 13.1304 9.96249C13.5425 9.96249 13.5634 10.0313 13.5634 11.3885V12.8146H12.1227C10.7839 12.8146 10.6426 12.7752 10.1262 12.2588L9.57042 11.703V7.10924C9.57042 3.58137 9.62423 2.53331 9.8022 2.59263C9.9296 2.63504 10.1872 3.43363 10.3747 4.36722Z" fill="#2A2A2A"/>
</g>
<defs>
<clipPath id="clip0_1_207">
<rect width="18" height="18" fill="white" transform="translate(18) rotate(90)"/>
</clipPath>
</defs>
</svg>
