<svg width="69" height="132" viewBox="0 0 69 132" fill="none" xmlns="http://www.w3.org/2000/svg">
<path d="M53.3167 114.91C46.7429 108.886 40.7498 102.258 35.4165 95.1124C30.0615 87.8929 26.6827 81.6175 27.1772 81.2582C27.6717 80.8988 31.9907 86.4097 37.8184 92.8383C43.629 99.2581 49.7666 105.374 56.207 111.162C60.2553 114.829 62.5301 116.85 63.7059 118.194L63.5866 116.051L63.1542 110.821C62.8496 107.473 62.5876 104.444 62.4094 101.891C62.0398 96.7854 62.0185 93.5781 62.5222 93.5029C63.026 93.4276 63.9757 96.4984 65.0035 101.556C65.5163 104.078 66.06 107.084 66.5742 110.463C66.8698 112.139 67.0496 113.93 67.2411 115.788C67.3248 116.726 67.4132 117.69 67.4557 118.703C67.4704 119.326 67.6664 122.135 65.9882 122.88C65.7887 122.983 65.607 123.111 65.392 123.203L64.854 123.393C64.5769 123.442 64.3526 123.481 64.1158 123.605C63.6276 123.691 63.1774 123.838 62.731 123.931C61.8205 124.091 60.9496 124.245 60.0918 124.396C58.3764 124.699 56.7207 124.8 55.1511 124.927C52.0097 125.168 49.182 125.259 46.8029 125.27C42.0423 125.279 39.0827 124.93 39.04 124.38C38.9974 123.83 41.8749 123.173 46.5339 122.433C48.868 122.089 51.6291 121.698 54.7045 121.237C56.222 120.969 57.835 120.78 59.4737 120.505L60.0147 120.409C57.6832 118.72 55.4567 116.891 53.3477 114.931" fill="#2A2A2A"/>
<path d="M23.7123 75.8831C23.0602 76.3518 21.352 74.8434 19.9924 72.4571C18.6327 70.0709 16.6463 64.9787 17.3651 64.5798C18.0839 64.1809 21.0749 68.5653 22.4338 70.8701C23.7926 73.1749 24.3776 75.412 23.7123 75.8831Z" fill="#2A2A2A"/>
<path d="M14.5385 58.738C13.9796 59.0407 12.5322 57.1597 11.4078 54.4871C10.2834 51.8144 8.76893 46.3124 9.3814 46.0819C9.99386 45.8514 12.3832 50.9135 13.5092 53.5178C14.6351 56.1222 15.113 58.4463 14.5455 58.7776" fill="#2A2A2A"/>
<path d="M7.85918 41.3834C7.41129 41.544 6.30079 39.4131 5.50321 36.5876C4.70562 33.762 3.75316 28.0521 4.23908 27.9528C4.72501 27.8535 6.3427 33.3237 7.16824 36.0763C7.99378 38.8288 8.30707 41.2227 7.8615 41.3965" fill="#2A2A2A"/>
<path d="M2.86168 16.8206C3.21061 19.7252 3.38263 22.0896 3.06593 22.1455C2.74922 22.2013 2.07109 19.899 1.71286 16.9415C1.49005 15.1259 1.36334 13.2997 1.33323 11.4707C1.22538 10.373 1.3157 9.26477 1.59989 8.19898C1.92619 9.24353 2.11701 10.3257 2.16767 11.4188L2.87257 16.8051" fill="#2A2A2A"/>
</svg>
