<svg width="18" height="19" viewBox="0 0 18 19" fill="none" xmlns="http://www.w3.org/2000/svg">
<g clip-path="url(#clip0_1809_3282)">
<path fill-rule="evenodd" clip-rule="evenodd" d="M4.10225 4.60225C4.32192 4.38258 4.67808 4.38258 4.89775 4.60225L9 8.7045L13.1023 4.60225C13.3219 4.38258 13.6781 4.38258 13.8977 4.60225C14.1174 4.82192 14.1174 5.17808 13.8977 5.39775L9.7955 9.5L13.8977 13.6023C14.1174 13.8219 14.1174 14.1781 13.8977 14.3977C13.6781 14.6174 13.3219 14.6174 13.1023 14.3977L9 10.2955L4.89775 14.3977C4.67808 14.6174 4.32192 14.6174 4.10225 14.3977C3.88258 14.1781 3.88258 13.8219 4.10225 13.6023L8.2045 9.5L4.10225 5.39775C3.88258 5.17808 3.88258 4.82192 4.10225 4.60225Z" fill="#2A2A2A"/>
</g>
<defs>
<clipPath id="clip0_1809_3282">
<rect width="18" height="18" fill="white" transform="translate(0 0.5)"/>
</clipPath>
</defs>
</svg>
