<svg width="25" height="24" viewBox="0 0 25 24" fill="none" xmlns="http://www.w3.org/2000/svg">
<g clip-path="url(#clip0_1_114)">
<path fill-rule="evenodd" clip-rule="evenodd" d="M9.08337 6.75C9.08337 4.67893 10.7623 3 12.8334 3C14.9044 3 16.5834 4.67893 16.5834 6.75C16.5834 8.82107 14.9044 10.5 12.8334 10.5C10.7623 10.5 9.08337 8.82107 9.08337 6.75Z" fill="#CFCFCF"/>
<path fill-rule="evenodd" clip-rule="evenodd" d="M16.5834 9.75C16.5834 8.09315 17.9265 6.75 19.5834 6.75C21.2402 6.75 22.5834 8.09315 22.5834 9.75C22.5834 11.4069 21.2402 12.75 19.5834 12.75C17.9265 12.75 16.5834 11.4069 16.5834 9.75Z" fill="#CFCFCF"/>
<path fill-rule="evenodd" clip-rule="evenodd" d="M3.08337 9.75C3.08337 8.09315 4.42652 6.75 6.08337 6.75C7.74023 6.75 9.08337 8.09315 9.08337 9.75C9.08337 11.4069 7.74023 12.75 6.08337 12.75C4.42652 12.75 3.08337 11.4069 3.08337 9.75Z" fill="#CFCFCF"/>
<path fill-rule="evenodd" clip-rule="evenodd" d="M7.14324 15.1175C8.34121 13.2444 10.4417 12 12.8334 12C15.2253 12 17.3261 13.2447 18.524 15.1182C19.3521 16.4134 19.7104 17.9752 19.5423 19.4979C19.5161 19.7359 19.3778 19.947 19.1701 20.0662C17.3028 21.1376 15.1385 21.75 12.8334 21.75C10.5283 21.75 8.36396 21.1376 6.49662 20.0662C6.28897 19.947 6.15067 19.7359 6.12441 19.4979C5.95631 17.9749 6.31478 16.4129 7.14324 15.1175Z" fill="#CFCFCF"/>
<path d="M5.91566 14.2537C5.90362 14.2722 5.89165 14.2907 5.87975 14.3093C4.91429 15.8189 4.47245 17.6167 4.60809 19.389C4.00004 19.2967 3.41007 19.1481 2.8438 18.9487L2.72884 18.9082C2.51913 18.8343 2.3726 18.6439 2.35496 18.4222L2.3453 18.3007C2.33739 18.2014 2.33337 18.1011 2.33337 18C2.33337 15.9851 3.92242 14.3414 5.91566 14.2537Z" fill="#CFCFCF"/>
<path d="M21.059 19.389C21.1946 17.617 20.753 15.8196 19.7879 14.3102C19.7758 14.2913 19.7637 14.2725 19.7515 14.2537C21.7445 14.3416 23.3334 15.9853 23.3334 18C23.3334 18.1011 23.3294 18.2014 23.3214 18.3007L23.3118 18.4222C23.2941 18.6439 23.1476 18.8343 22.9379 18.9082L22.8229 18.9487C22.2568 19.1481 21.6669 19.2966 21.059 19.389Z" fill="#CFCFCF"/>
</g>
<defs>
<clipPath id="clip0_1_114">
<rect width="24" height="24" fill="white" transform="translate(0.833374)"/>
</clipPath>
</defs>
</svg>
