<svg width="178" height="177" viewBox="0 0 178 177" fill="none" xmlns="http://www.w3.org/2000/svg">
<g clip-path="url(#clip0_1_33179)">
<path fill-rule="evenodd" clip-rule="evenodd" d="M89 177C137.877 177 177.5 137.377 177.5 88.5C177.5 39.6228 137.877 0 89 0C67.0712 0 58.7357 26.3019 43.275 39.5105C24.2752 55.7427 0.5 61.5516 0.5 88.5C0.5 137.377 40.1228 177 89 177Z" fill="#F2F2F2"/>
<g filter="url(#filter0_f_1_33179)">
<path d="M136.2 59H59.5C57.0561 59 55.075 60.694 55.075 62.7837V142.241C55.075 144.331 57.0561 146.025 59.5 146.025H136.2C138.644 146.025 140.625 144.331 140.625 142.241V62.7837C140.625 60.694 138.644 59 136.2 59Z" fill="#EBEBEB"/>
</g>
<path d="M52.125 59.0002C52.125 52.4832 57.408 47.2002 63.925 47.2002H119.975C126.492 47.2002 131.775 52.4832 131.775 59.0002V122.425C131.775 128.942 126.492 134.225 119.975 134.225H63.925C57.408 134.225 52.125 128.942 52.125 122.425V59.0002Z" fill="white"/>
<path fill-rule="evenodd" clip-rule="evenodd" d="M125.375 129.606C126.897 128.253 127.034 125.922 125.681 124.4L113.881 111.125C112.528 109.603 110.197 109.466 108.675 110.819C107.153 112.172 107.016 114.503 108.369 116.025L120.169 129.3C121.522 130.822 123.853 130.959 125.375 129.606Z" fill="#696969"/>
<path fill-rule="evenodd" clip-rule="evenodd" d="M97.85 80.3877C89.2965 80.3877 82.3625 87.3217 82.3625 95.8752C82.3625 104.429 89.2965 111.363 97.85 111.363C106.404 111.363 113.338 104.429 113.338 95.8752C113.338 87.3217 106.404 80.3877 97.85 80.3877ZM74.9875 95.8752C74.9875 83.2486 85.2234 73.0127 97.85 73.0127C110.477 73.0127 120.713 83.2486 120.713 95.8752C120.713 108.502 110.477 118.738 97.85 118.738C85.2234 118.738 74.9875 108.502 74.9875 95.8752Z" fill="#696969"/>
</g>
<defs>
<filter id="filter0_f_1_33179" x="38.85" y="42.775" width="118" height="119.475" filterUnits="userSpaceOnUse" color-interpolation-filters="sRGB">
<feFlood flood-opacity="0" result="BackgroundImageFix"/>
<feBlend mode="normal" in="SourceGraphic" in2="BackgroundImageFix" result="shape"/>
<feGaussianBlur stdDeviation="8.1125" result="effect1_foregroundBlur_1_33179"/>
</filter>
<clipPath id="clip0_1_33179">
<rect width="177" height="177" fill="white" transform="translate(0.5)"/>
</clipPath>
</defs>
</svg>
