<svg width="178" height="177" viewBox="0 0 178 177" fill="none" xmlns="http://www.w3.org/2000/svg">
<g clip-path="url(#clip0_38_32744)">
<path fill-rule="evenodd" clip-rule="evenodd" d="M89 177C137.877 177 177.5 137.377 177.5 88.5C177.5 39.6228 137.877 0 89 0C67.0712 0 58.7357 26.3019 43.275 39.5105C24.2752 55.7427 0.5 61.5516 0.5 88.5C0.5 137.377 40.1228 177 89 177Z" fill="#F2F2F2"/>
<g filter="url(#filter0_f_38_32744)">
<path d="M142.1 57.5249H65.4C62.9561 57.5249 60.975 59.2189 60.975 61.3086V140.766C60.975 142.856 62.9561 144.55 65.4 144.55H142.1C144.544 144.55 146.525 142.856 146.525 140.766V61.3086C146.525 59.2189 144.544 57.5249 142.1 57.5249Z" fill="#EBEBEB"/>
</g>
<path d="M52.125 59.0002C52.125 52.4832 57.408 47.2002 63.925 47.2002H119.975C126.492 47.2002 131.775 52.4832 131.775 59.0002V122.425C131.775 128.942 126.492 134.225 119.975 134.225H63.925C57.408 134.225 52.125 128.942 52.125 122.425V59.0002Z" fill="white"/>
<path fill-rule="evenodd" clip-rule="evenodd" d="M138.834 64.6309C140.612 66.3078 140.694 69.1084 139.017 70.8862L101.069 111.116C99.392 112.894 96.5914 112.975 94.8137 111.298C93.0359 109.622 92.9542 106.821 94.6311 105.043L132.579 64.8135C134.256 63.0357 137.057 62.954 138.834 64.6309Z" fill="#696969"/>
</g>
<defs>
<filter id="filter0_f_38_32744" x="44.75" y="41.2999" width="118" height="119.475" filterUnits="userSpaceOnUse" color-interpolation-filters="sRGB">
<feFlood flood-opacity="0" result="BackgroundImageFix"/>
<feBlend mode="normal" in="SourceGraphic" in2="BackgroundImageFix" result="shape"/>
<feGaussianBlur stdDeviation="8.1125" result="effect1_foregroundBlur_38_32744"/>
</filter>
<clipPath id="clip0_38_32744">
<rect width="177" height="177" fill="white" transform="translate(0.5)"/>
</clipPath>
</defs>
</svg>
