<svg width="25" height="24" viewBox="0 0 25 24" fill="none" xmlns="http://www.w3.org/2000/svg">
<g clip-path="url(#clip0_1_111)">
<path d="M19.8428 5.56641C19.9453 5.9435 20 6.34029 20 6.74986L20 17.2499C20 17.6594 19.9453 18.0562 19.8428 18.4333C20.8255 17.9406 21.5 16.924 21.5 15.7499L21.5 8.24986C21.5 7.0757 20.8255 6.0591 19.8428 5.56641Z" fill="#2A2A2A"/>
<path d="M12.5 2.25C14.1569 2.25 15.5 3.59315 15.5 5.25L15.5 18.75C15.5 20.4069 14.1569 21.75 12.5 21.75L6.5 21.75C4.84314 21.75 3.5 20.4069 3.5 18.75L3.5 5.25C3.5 3.59315 4.84315 2.25 6.5 2.25L12.5 2.25Z" fill="#2A2A2A"/>
<path d="M17 5.24986C17 4.84029 16.9453 4.4435 16.8428 4.06641C17.8255 4.5591 18.5 5.5757 18.5 6.74986L18.5 17.2499C18.5 18.424 17.8255 19.4406 16.8428 19.9333C16.9453 19.5562 17 19.1594 17 18.7499L17 5.24986Z" fill="#2A2A2A"/>
</g>
<defs>
<clipPath id="clip0_1_111">
<rect width="24" height="24" fill="white" transform="translate(24.5) rotate(90)"/>
</clipPath>
</defs>
</svg>
